<svg xmlns="http://www.w3.org/2000/svg" width="24" height="20pt" viewBox="0 0 24 20">
<path style=" stroke:none;fill-rule:nonzero;fill:rgb(0%,0%,0%);fill-opacity:1;" d="M 11.710938 17.355469 C 18.699219 17.355469 23.417969 11.824219 23.417969 10.113281 C 23.417969 8.398438 18.691406 2.871094 11.710938 2.871094 C 4.824219 2.871094 0 8.398438 0 10.113281 C 0 11.824219 4.820312 17.355469 11.710938 17.355469 Z M 11.710938 15.75 C 6.257812 15.75 1.929688 11.28125 1.929688 10.113281 C 1.929688 9.136719 6.257812 4.476562 11.710938 4.476562 C 17.144531 4.476562 21.488281 9.136719 21.488281 10.113281 C 21.488281 11.28125 17.144531 15.75 11.710938 15.75 Z M 11.714844 14.625 C 14.265625 14.625 16.3125 12.570312 16.3125 10.113281 C 16.3125 7.59375 14.265625 5.605469 11.714844 5.605469 C 9.148438 5.605469 7.09375 7.59375 7.097656 10.113281 C 7.113281 12.570312 9.148438 14.625 11.714844 14.625 Z M 11.710938 11.574219 C 10.882812 11.574219 10.214844 10.914062 10.214844 10.113281 C 10.214844 9.304688 10.882812 8.652344 11.710938 8.652344 C 12.535156 8.652344 13.207031 9.304688 13.207031 10.113281 C 13.207031 10.914062 12.535156 11.574219 11.710938 11.574219 Z M 11.710938 11.574219 "/>
</svg>
