<svg xmlns="http://www.w3.org/2000/svg" width="24" height="20pt" viewBox="0 0 24 20">
<path style=" stroke:none;fill-rule:nonzero;fill:rgb(0%,0%,0%);fill-opacity:1;" d="M 11.710938 17.304688 C 13.285156 17.304688 14.722656 17.035156 16.035156 16.601562 L 14.675781 15.265625 C 13.746094 15.535156 12.761719 15.699219 11.710938 15.699219 C 6.257812 15.699219 1.929688 11.226562 1.929688 10.0625 C 1.929688 9.5 3.382812 7.679688 5.71875 6.273438 L 4.4375 5.015625 C 1.648438 6.753906 0 9.058594 0 10.0625 C 0 11.773438 4.820312 17.304688 11.710938 17.304688 Z M 11.710938 2.820312 C 10.226562 2.820312 8.875 3.070312 7.625 3.476562 L 8.988281 4.8125 C 9.851562 4.566406 10.742188 4.425781 11.710938 4.425781 C 17.15625 4.425781 21.488281 9.082031 21.488281 10.0625 C 21.488281 10.714844 20.109375 12.425781 17.914062 13.78125 L 19.179688 15.027344 C 21.847656 13.296875 23.417969 11.042969 23.417969 10.0625 C 23.417969 8.34375 18.699219 2.820312 11.710938 2.820312 Z M 11.710938 14.574219 C 12.371094 14.574219 12.996094 14.417969 13.554688 14.160156 L 7.519531 8.234375 C 7.25 8.78125 7.097656 9.398438 7.097656 10.0625 C 7.105469 12.515625 9.148438 14.574219 11.710938 14.574219 Z M 15.964844 11.679688 C 16.191406 11.179688 16.3125 10.628906 16.3125 10.058594 C 16.3125 7.542969 14.265625 5.550781 11.714844 5.550781 C 11.121094 5.550781 10.566406 5.671875 10.058594 5.878906 Z M 15.964844 11.679688 "/>
<path style=" stroke:none;fill-rule:nonzero;fill:rgb(0%,0%,0%);fill-opacity:1;" d="M 18.429688 17.445312 C 18.691406 17.714844 19.117188 17.726562 19.386719 17.445312 C 19.671875 17.167969 19.652344 16.769531 19.386719 16.503906 L 4.957031 2.339844 C 4.691406 2.078125 4.257812 2.078125 3.988281 2.339844 C 3.730469 2.589844 3.730469 3.03125 3.988281 3.28125 Z M 18.429688 17.445312 "/>
</svg>
