<svg width="277" height="276" viewBox="0 0 277 276" fill="none" xmlns="http://www.w3.org/2000/svg">
<g clip-path="url(#clip0_1_637)">
<path d="M228.004 238.179C252.461 214.216 267.642 180.822 267.642 143.878C267.642 70.9623 208.533 11.8529 135.617 11.8529C62.7022 11.8529 3.59271 70.9623 3.59271 143.878C3.59271 160.47 6.66213 176.343 12.2497 190.971L228.004 238.179Z" fill="#49D88B"/>
<path d="M206.153 0H34.3289C22.0114 0 12.0266 9.9853 12.0266 22.3028V190.384C15.9932 200.92 21.2731 210.813 27.6588 219.869L212.647 251.096C218.261 247.055 223.55 242.591 228.455 237.739V22.3028C228.455 9.9853 218.47 0 206.153 0V0Z" fill="#167CC1"/>
<path d="M85.2868 224.162C79.9428 218.238 83.7748 212.77 85.2917 211.027C85.6398 210.627 85.8349 210.119 85.8349 209.589V180.25C85.8349 179.721 85.6425 179.207 85.2895 178.813C80.1325 173.053 83.9014 167.419 85.3407 165.661C85.6603 165.27 85.8349 164.785 85.8349 164.281V134.908C85.8349 134.374 85.6414 133.854 85.2809 133.46C79.6157 127.271 83.3092 122.192 85.0605 120.37C85.5444 119.867 85.7497 119.158 85.6306 118.47L76.6018 66.3637C76.5269 65.9321 76.3178 65.5355 76.0145 65.2191C64.1237 52.8315 71.3979 40.6676 74.3052 36.7931C74.8101 36.12 74.9286 35.2094 74.5379 34.4641C73.8417 33.1363 74.3908 32.0257 74.8597 31.4119C75.1609 31.0175 75.3409 30.5438 75.3409 30.047V20.5272C75.3409 20.0999 75.1824 19.6952 74.9319 19.3493C74.1262 18.2381 74.3035 17.1237 74.6403 16.3294C74.962 15.5712 74.8338 14.7004 74.3052 14.0689C69.6191 8.4662 72.2397 3.61958 74.0589 1.35848C74.3795 0.959711 74.5331 0.479037 74.5336 0.000518821H34.3284C22.0114 -2.00515e-05 12.0266 9.98528 12.0266 22.3028V190.384C15.9932 200.92 21.2731 210.813 27.6588 219.869L85.8354 229.689V225.603C85.8354 225.072 85.6425 224.556 85.2868 224.162Z" fill="#0E62A8"/>
<path d="M89.6948 120.644C65.6137 91.3129 39.1427 94.7779 27.2234 98.5333V219.256C51.0771 253.493 90.7273 275.903 135.618 275.903C164.639 275.903 191.467 266.531 213.258 250.66C213.258 228.957 213.258 197.181 213.258 164.607C210.126 162.085 206.9 159.173 203.568 155.84C170.951 123.223 144.051 186.852 89.6948 120.644Z" fill="#E9EFFF"/>
<path d="M85.7163 256.12C85.795 255.89 85.8354 255.653 85.8354 255.41V225.603C85.8354 225.072 85.6425 224.556 85.2869 224.162C79.9429 218.238 83.7748 212.77 85.2917 211.027C85.6398 210.627 85.8349 210.119 85.8349 209.589V180.25C85.8349 179.721 85.6425 179.207 85.2896 178.813C80.1325 173.053 83.9014 167.419 85.3407 165.661C85.6603 165.271 85.8349 164.785 85.8349 164.281V134.908C85.8349 134.374 85.6414 133.854 85.2809 133.46C79.6158 127.271 83.3092 122.192 85.0605 120.37C85.5444 119.867 85.7497 119.158 85.6307 118.47L85.1117 115.477C62.3309 91.7516 38.3899 95.0145 27.2228 98.5333V219.256C42.0682 240.564 63.0331 257.288 87.5706 266.883C84.0437 262.088 85.2895 257.366 85.7163 256.12Z" fill="#D3DCFB"/>
<path d="M89.6948 121.771C144.05 187.978 170.95 124.349 203.568 156.966C206.9 160.299 210.126 163.211 213.258 165.733V34.3978H27.2239V99.6596C39.1432 95.9036 65.6142 92.4387 89.6948 121.771Z" fill="#9BD8F9"/>
<path d="M27.2239 99.6596C38.4303 96.1283 62.499 92.8579 85.3515 116.855L76.6029 66.3637C76.528 65.9321 76.3189 65.5355 76.0156 65.2192C64.1248 52.8316 71.399 40.6676 74.3063 36.7931C74.8112 36.1201 74.9297 35.2094 74.5391 34.4641C74.5272 34.4415 74.5223 34.4199 74.511 34.3978H27.2239V99.6596Z" fill="#73C3F9"/>
<path d="M179.639 119.648H58.6509C55.7992 119.648 53.4659 117.315 53.4659 114.463V70.8212C53.4659 67.9695 55.7992 65.6362 58.6509 65.6362H179.639C182.49 65.6362 184.824 67.9695 184.824 70.8212V114.463C184.824 117.315 182.49 119.648 179.639 119.648Z" fill="#4FABF7"/>
<path d="M95.8568 109.731V75.5525C95.8568 70.098 100.319 65.6356 105.774 65.6356H58.6509C55.7992 65.6356 53.4659 67.9689 53.4659 70.8206V114.463C53.4659 117.315 55.7992 119.648 58.6509 119.648H105.774C100.319 119.648 95.8568 115.185 95.8568 109.731Z" fill="#1E9EF4"/>
<path d="M206.153 15.1971H34.3295C30.421 15.1971 27.2234 18.3948 27.2234 22.3032V35.5239H213.258V22.3027C213.258 18.3948 210.061 15.1971 206.153 15.1971Z" fill="#2A428C"/>
<path d="M74.539 34.4645C73.8428 33.1367 74.3919 32.0261 74.8607 31.4123C75.162 31.0179 75.342 30.5442 75.342 30.0474V20.5271C75.342 20.0998 75.1835 19.6951 74.9329 19.3491C74.1273 18.238 74.3046 17.1236 74.6414 16.3293C74.7961 15.965 74.844 15.5749 74.7961 15.1971H34.3295C30.4216 15.1971 27.2234 18.3948 27.2234 22.3032V35.5239H74.7632C74.7805 35.1613 74.7131 34.7965 74.539 34.4645Z" fill="#1C2E7A"/>
<path d="M50.2709 25.3604C50.2709 28.4174 47.7927 30.8951 44.7362 30.8951C41.6791 30.8951 39.2014 28.4169 39.2014 25.3604C39.2014 22.3039 41.6797 19.8256 44.7362 19.8256C47.7927 19.8256 50.2709 22.3034 50.2709 25.3604Z" fill="#FF4155"/>
<path d="M65.5738 25.3604C65.5738 28.4174 63.0955 30.8951 60.039 30.8951C56.9825 30.8951 54.5043 28.4169 54.5043 25.3604C54.5043 22.3039 56.9825 19.8256 60.039 19.8256C63.0955 19.8256 65.5738 22.3034 65.5738 25.3604Z" fill="#FFDD40"/>
<path d="M80.8767 25.3604C80.8767 28.4174 78.3989 30.8951 75.3419 30.8951C72.2849 30.8951 69.8072 28.4169 69.8072 25.3604C69.8072 22.3039 72.2854 19.8256 75.3419 19.8256C78.3984 19.8256 80.8767 22.3034 80.8767 25.3604Z" fill="#38C674"/>
<path d="M154.588 29.5819H99.0523C96.7206 29.5819 94.8308 27.6921 94.8308 25.3604C94.8308 23.0287 96.7206 21.1389 99.0523 21.1389H154.588C156.92 21.1389 158.809 23.0287 158.809 25.3604C158.81 27.6921 156.92 29.5819 154.588 29.5819Z" fill="#3C58A0"/>
<path d="M136.686 109.041C134.354 109.041 132.465 107.151 132.465 104.82V80.4633C132.465 78.1316 134.354 76.2418 136.686 76.2418C139.018 76.2418 140.908 78.1316 140.908 80.4633V104.82C140.908 107.151 139.018 109.041 136.686 109.041Z" fill="#E9EFFF"/>
<path d="M164.632 109.041H148.383C146.835 109.041 145.41 108.193 144.672 106.831C143.934 105.469 144.001 103.813 144.847 102.515L156.465 84.6848H148.883C146.552 84.6848 144.662 82.795 144.662 80.4633C144.662 78.1316 146.552 76.2418 148.883 76.2418H164.254C167.602 76.2418 169.618 79.9648 167.791 82.768L156.173 100.598H164.632C166.963 100.598 168.854 102.488 168.854 104.82C168.854 107.151 166.963 109.041 164.632 109.041Z" fill="#E9EFFF"/>
<path d="M116.288 109.041C116.281 109.041 116.274 109.041 116.268 109.041C110.03 109.034 103.742 104.252 103.742 97.2233V80.4633C103.742 78.1316 105.632 76.2418 107.963 76.2418C110.295 76.2418 112.185 78.1316 112.185 80.4633V97.2233C112.185 98.0763 112.326 98.8722 114.057 99.978C114.708 100.394 115.435 100.597 116.278 100.598H116.287C118.281 100.598 120.666 99.2764 120.666 97.2055V80.4628C120.666 78.1311 122.556 76.2412 124.887 76.2412C127.219 76.2412 129.109 78.1311 129.109 80.4628V97.2055C129.109 104.285 122.713 109.041 116.288 109.041Z" fill="#E9EFFF"/>
<path d="M95.1223 107.706L87.3302 99.9149C85.6813 98.2665 85.6813 95.5931 87.3302 93.9447C88.9787 92.2958 91.652 92.2963 93.3004 93.9442L101.093 101.736C102.741 103.384 102.741 106.058 101.093 107.706C99.4446 109.355 96.7718 109.355 95.1223 107.706Z" fill="#E9EFFF"/>
<path d="M85.8354 109.043C76.7926 109.043 69.4359 101.686 69.4359 92.6433C69.4359 83.5999 76.7926 76.2433 85.8354 76.2433C94.8782 76.2433 102.235 83.5999 102.235 92.6433C102.235 101.686 94.8782 109.043 85.8354 109.043ZM85.8354 84.6863C81.4479 84.6863 77.879 88.2558 77.879 92.6433C77.879 97.0308 81.4479 100.6 85.8354 100.6C90.2229 100.6 93.7924 97.0308 93.7924 92.6433C93.7918 88.2558 90.2229 84.6863 85.8354 84.6863Z" fill="#E9EFFF"/>
<path d="M258.143 89.7185C278.661 69.2001 278.661 35.9331 258.143 15.4147C237.625 -5.10374 204.358 -5.10373 183.839 15.4147C163.321 35.9331 163.321 69.2001 183.839 89.7185C204.358 110.237 237.625 110.237 258.143 89.7185Z" fill="#FFDD40"/>
<path d="M168.472 52.5485C168.472 81.57 191.999 105.097 221.021 105.097C234.587 105.097 246.951 99.9558 256.274 91.516C256.038 91.1991 255.715 90.9475 255.326 90.8106C252.582 89.8433 252.076 87.4594 252.098 85.7495C252.111 84.738 251.367 83.8591 250.37 83.691C246.356 83.0147 245.464 80.246 245.335 78.3664C245.267 77.3609 244.445 76.5736 243.441 76.4863C232.944 75.5767 231.286 67.4451 231.043 64.2237C230.982 63.4138 230.46 62.716 229.698 62.4336C226.893 61.3936 220.232 58.8964 216.086 57.1252C211.881 55.328 212.681 46.1499 213.22 42.2798C213.355 41.3179 212.779 40.4228 211.866 40.0903C203.813 37.1546 205.622 27.0917 206.768 22.9105C207.03 21.953 206.591 20.928 205.694 20.5029C202.398 18.9407 202.557 15.7096 203.058 13.6694C203.291 12.7221 202.842 11.7564 201.977 11.3043C199.738 10.1328 199.509 7.66908 199.641 6.02875C199.68 5.54269 199.538 5.07818 199.27 4.70151C181.102 12.9727 168.472 31.2852 168.472 52.5485Z" fill="#FFB332"/>
<path d="M248.779 80.3544C264.126 65.0076 264.126 40.1256 248.779 24.7789C233.432 9.43214 208.55 9.43215 193.203 24.7789C177.857 40.1256 177.857 65.0076 193.203 80.3544C208.55 95.7011 233.432 95.7011 248.779 80.3544Z" fill="#E9EFFF"/>
<path d="M246.931 82.0885C245.774 80.9611 245.412 79.5024 245.335 78.3665C245.266 77.3609 244.444 76.5736 243.44 76.4863C232.944 75.5767 231.286 67.4451 231.043 64.2238C230.982 63.4138 230.46 62.716 229.698 62.4336C226.892 61.3936 220.231 58.8965 216.086 57.1252C211.881 55.3281 212.681 46.15 213.22 42.2798C213.354 41.3179 212.778 40.4229 211.865 40.0904C203.813 37.1546 205.621 27.0917 206.767 22.9106C207.03 21.953 206.591 20.9281 205.693 20.5029C204.192 19.791 203.412 18.7322 203.05 17.5978C190.385 24.1236 181.717 37.32 181.717 52.5491C181.717 74.2559 199.314 91.8528 221.02 91.8528C230.95 91.8523 240.013 88.1621 246.931 82.0885Z" fill="#D3DCFB"/>
<path d="M229.108 52.5487H260.324C260.324 30.8418 242.727 13.245 221.02 13.245V44.4613C225.353 44.7604 228.808 48.2156 229.108 52.5487Z" fill="#FF4155"/>
<path d="M181.952 146.698L170.482 135.228C169.721 134.466 168.688 134.039 167.61 134.039H84.7097V165.102H167.61C168.687 165.102 169.72 164.674 170.481 163.912L181.951 152.443C183.538 150.856 183.538 148.285 181.952 146.698Z" fill="#D3DCFB"/>
<path d="M181.952 192.049L170.482 180.579C169.721 179.817 168.688 179.389 167.61 179.389H84.7097V210.452H167.61C168.687 210.452 169.72 210.024 170.481 209.263L181.951 197.793C183.538 196.206 183.538 193.635 181.952 192.049Z" fill="#D3DCFB"/>
<path d="M181.952 237.398L170.482 225.929C169.721 225.167 168.688 224.739 167.61 224.739H84.7097V255.802H167.61C168.687 255.802 169.72 255.374 170.481 254.613L181.951 243.143C183.538 241.556 183.538 238.984 181.952 237.398Z" fill="#D3DCFB"/>
<path d="M113.941 149.57C113.941 140.992 120.895 134.038 129.473 134.038H84.7097V165.101H129.473C120.895 165.101 113.941 158.148 113.941 149.57Z" fill="#BEC8F7"/>
<path d="M113.941 194.92C113.941 186.343 120.895 179.389 129.473 179.389H84.7097V210.451H129.473C120.895 210.451 113.941 203.498 113.941 194.92Z" fill="#BEC8F7"/>
<path d="M113.941 240.27C113.941 231.692 120.895 224.739 129.473 224.739H84.7097V255.801H129.473C120.895 255.801 113.941 248.848 113.941 240.27Z" fill="#BEC8F7"/>
<path d="M54.5038 228.8V248.048C58.0533 250.816 61.7495 253.402 65.576 255.802H85.8354V224.739H58.5653C56.3225 224.739 54.5038 226.557 54.5038 228.8Z" fill="#38C674"/>
<path d="M85.8354 179.389H58.5653C56.3225 179.389 54.5038 181.207 54.5038 183.45V206.39C54.5038 208.633 56.3219 210.451 58.5653 210.451H85.8354V179.389Z" fill="#FFDD40"/>
<path d="M85.8354 134.039H58.5653C56.3225 134.039 54.5038 135.857 54.5038 138.1V161.04C54.5038 163.283 56.3219 165.101 58.5653 165.101H85.8354V134.039Z" fill="#FF4155"/>
<path d="M221.021 96.7873C196.628 96.7873 176.782 76.9423 176.782 52.5486C176.782 28.1549 196.628 8.30989 221.021 8.30989C245.414 8.30989 265.259 28.1549 265.259 52.5486C265.259 76.9423 245.414 96.7873 221.021 96.7873ZM221.021 18.1799C202.07 18.1799 186.652 33.5976 186.652 52.5481C186.652 71.4986 202.07 86.9163 221.021 86.9163C239.972 86.9163 255.389 71.4986 255.389 52.5481C255.389 33.5976 239.971 18.1799 221.021 18.1799Z" fill="#FFB332"/>
<path d="M251.636 84.4369C251.325 84.0533 250.882 83.7774 250.369 83.6906C246.356 83.0143 245.463 80.2456 245.335 78.366C245.305 77.9408 245.136 77.5593 244.881 77.2489C238.695 83.2272 230.283 86.9168 221.02 86.9168C202.07 86.9168 186.652 71.4991 186.652 52.5486C186.652 38.7503 194.83 26.8326 206.59 21.3679C206.393 21.0014 206.092 20.691 205.694 20.5024C202.397 18.9402 202.556 15.7092 203.057 13.669C203.182 13.1619 203.106 12.6521 202.881 12.2162C187.511 19.1563 176.781 34.6182 176.781 52.5492C176.781 76.9428 196.627 96.7879 221.02 96.7879C232.894 96.7873 243.681 92.0765 251.636 84.4369Z" fill="#FF9100"/>
<path d="M221.021 66.8164C213.153 66.8164 206.753 60.4162 206.753 52.5487C206.753 44.6811 213.154 38.2809 221.021 38.2809C228.888 38.2809 235.288 44.6811 235.288 52.5487C235.288 60.4162 228.888 66.8164 221.021 66.8164ZM221.021 48.1515C218.596 48.1515 216.623 50.1243 216.623 52.5487C216.623 54.9731 218.596 56.9459 221.021 56.9459C223.446 56.9459 225.418 54.9731 225.418 52.5487C225.418 50.1243 223.445 48.1515 221.021 48.1515Z" fill="#3C58A0"/>
<path d="M221.021 48.1515C218.295 48.1515 216.086 45.9421 216.086 43.2165V28.5888C216.086 25.8632 218.295 23.6538 221.021 23.6538C223.746 23.6538 225.956 25.8632 225.956 28.5888V43.2165C225.956 45.9421 223.746 48.1515 221.021 48.1515Z" fill="#3C58A0"/>
</g>
<defs>
<clipPath id="clip0_1_637">
<rect width="275.903" height="275.903" fill="white" transform="translate(0.629456)"/>
</clipPath>
</defs>
</svg>
