<svg width="418" height="56" viewBox="0 0 418 56" fill="none" xmlns="http://www.w3.org/2000/svg">
<path d="M1.76486 51.45C1.29423 51.45 0.870662 51.2867 0.49416 50.96C0.16472 50.5867 0 50.1667 0 49.7V4.2C0 3.68666 0.16472 3.26666 0.49416 2.94C0.870662 2.61333 1.29423 2.45 1.76486 2.45H21.5312C27.5553 2.45 32.2851 3.82666 35.7207 6.58C39.2033 9.33333 40.9447 13.3467 40.9447 18.62C40.9447 23.8467 39.2269 27.79 35.7913 30.45C32.3557 33.0633 27.6023 34.37 21.5312 34.37H13.1305V49.7C13.1305 50.2133 12.9423 50.6333 12.5658 50.96C12.2363 51.2867 11.8128 51.45 11.2951 51.45H1.76486ZM21.1783 24.71C23.249 24.71 24.8727 24.1967 26.0493 23.17C27.2258 22.0967 27.8141 20.5333 27.8141 18.48C27.8141 16.5667 27.2494 15.05 26.1199 13.93C25.0374 12.7633 23.3902 12.18 21.1783 12.18H12.9187V24.71H21.1783Z" fill="#3C3A36"/>
<path d="M46.8591 9.8C46.3414 9.8 45.9179 9.63666 45.5884 9.31C45.259 8.98333 45.0943 8.56333 45.0943 8.05V1.75C45.0943 1.23667 45.259 0.816666 45.5884 0.489998C45.9179 0.163333 46.3414 0 46.8591 0H55.3304C55.8481 0 56.2717 0.163333 56.6011 0.489998C56.9306 0.816666 57.0953 1.23667 57.0953 1.75V8.05C57.0953 8.56333 56.9306 8.98333 56.6011 9.31C56.2717 9.63666 55.8481 9.8 55.3304 9.8H46.8591ZM46.9297 51.45C46.412 51.45 45.9885 51.2867 45.659 50.96C45.3296 50.6333 45.1649 50.2133 45.1649 49.7V16.8C45.1649 16.2867 45.3296 15.8667 45.659 15.54C45.9885 15.2133 46.412 15.05 46.9297 15.05H55.2598C55.7775 15.05 56.2011 15.2133 56.5305 15.54C56.86 15.8667 57.0247 16.2867 57.0247 16.8V49.7C57.0247 50.1667 56.86 50.5867 56.5305 50.96C56.2011 51.2867 55.7775 51.45 55.2598 51.45H46.9297Z" fill="#3C3A36"/>
<path d="M62.1169 51.45C61.6933 51.45 61.3168 51.31 60.9874 51.03C60.705 50.7033 60.5638 50.3067 60.5638 49.84C60.5638 49.4667 60.6814 49.1167 60.9168 48.79L72.706 32.76L61.9757 17.71C61.6933 17.3367 61.5521 16.9633 61.5521 16.59C61.5521 16.17 61.7168 15.82 62.0463 15.54C62.3757 15.2133 62.7522 15.05 63.1758 15.05H71.7883C72.6354 15.05 73.3178 15.4467 73.8355 16.24L80.4008 25.2L86.8954 16.31C87.1778 15.9367 87.4602 15.6333 87.7426 15.4C88.0249 15.1667 88.4485 15.05 89.0133 15.05H97.2728C97.6963 15.05 98.0493 15.2133 98.3317 15.54C98.6611 15.82 98.8259 16.17 98.8259 16.59C98.8259 17.0567 98.7082 17.43 98.4729 17.71L87.4602 32.76L99.4612 48.79C99.6965 49.1167 99.8142 49.4667 99.8142 49.84C99.8142 50.3067 99.6495 50.7033 99.32 51.03C99.0376 51.31 98.6847 51.45 98.2611 51.45H89.225C88.425 51.45 87.7661 51.0767 87.2484 50.33L80.1184 40.74L72.9178 50.33C72.6354 50.7033 72.353 50.9833 72.0706 51.17C71.7883 51.3567 71.4118 51.45 70.9411 51.45H62.1169Z" fill="#3C3A36"/>
<path d="M118.9 52.15C113.252 52.15 108.805 50.6333 105.558 47.6C102.31 44.5667 100.616 40.1567 100.475 34.37V31.92C100.663 26.4133 102.381 22.12 105.628 19.04C108.923 15.9133 113.323 14.35 118.829 14.35C122.83 14.35 126.195 15.1667 128.924 16.8C131.701 18.3867 133.772 20.58 135.137 23.38C136.549 26.18 137.255 29.4 137.255 33.04V34.72C137.255 35.1867 137.09 35.6067 136.76 35.98C136.431 36.3067 136.007 36.47 135.49 36.47H112.899V36.96C112.994 39.1533 113.535 40.9267 114.523 42.28C115.511 43.6333 116.947 44.31 118.829 44.31C120.006 44.31 120.971 44.0767 121.724 43.61C122.477 43.0967 123.159 42.49 123.771 41.79C124.195 41.2767 124.524 40.9733 124.759 40.88C125.042 40.74 125.465 40.67 126.03 40.67H134.784C135.207 40.67 135.56 40.81 135.843 41.09C136.172 41.3233 136.337 41.65 136.337 42.07C136.337 43.2833 135.631 44.6833 134.219 46.27C132.854 47.8567 130.854 49.2333 128.218 50.4C125.583 51.5667 122.477 52.15 118.9 52.15ZM124.83 29.54V29.4C124.83 27.1133 124.289 25.3167 123.206 24.01C122.171 22.6567 120.712 21.98 118.829 21.98C116.994 21.98 115.535 22.6567 114.453 24.01C113.417 25.3167 112.899 27.1133 112.899 29.4V29.54H124.83Z" fill="#3C3A36"/>
<path d="M143.873 51.45C143.402 51.45 142.979 51.2867 142.602 50.96C142.273 50.5867 142.108 50.1667 142.108 49.7V3.5C142.108 2.98666 142.273 2.56667 142.602 2.24C142.979 1.91333 143.402 1.75 143.873 1.75H152.203C152.721 1.75 153.144 1.91333 153.474 2.24C153.803 2.56667 153.968 2.98666 153.968 3.5V49.7C153.968 50.2133 153.803 50.6333 153.474 50.96C153.144 51.2867 152.721 51.45 152.203 51.45H143.873Z" fill="#3C3A36"/>
<path d="M192.804 56C192.145 56 191.604 55.8367 191.18 55.51C190.804 55.23 190.451 54.8567 190.121 54.39L187.721 51.24C185.933 51.8467 183.838 52.15 181.438 52.15C174.802 52.15 169.578 50.54 165.766 47.32C162.001 44.1 160.001 39.3633 159.766 33.11C159.719 31.7567 159.695 29.75 159.695 27.09C159.695 24.3833 159.719 22.3533 159.766 21C159.954 14.84 161.978 10.1033 165.837 6.79C169.743 3.43 174.944 1.75 181.438 1.75C187.933 1.75 193.133 3.43 197.04 6.79C200.946 10.1033 202.993 14.84 203.181 21C203.275 23.7067 203.322 25.7367 203.322 27.09C203.322 28.3967 203.275 30.4033 203.181 33.11C202.993 38.85 201.299 43.33 198.098 46.55L203.252 53.83C203.393 54.11 203.464 54.3433 203.464 54.53V54.67C203.464 55.0433 203.322 55.3467 203.04 55.58C202.758 55.86 202.428 56 202.052 56H192.804ZM181.438 42.07C184.027 42.07 186.074 41.3 187.58 39.76C189.133 38.22 189.957 35.8633 190.051 32.69C190.145 29.9833 190.192 28.07 190.192 26.95C190.192 25.7367 190.145 23.8233 190.051 21.21C189.957 18.0367 189.133 15.68 187.58 14.14C186.074 12.6 184.027 11.83 181.438 11.83C178.897 11.83 176.85 12.6 175.297 14.14C173.79 15.68 172.99 18.0367 172.896 21.21C172.849 22.5167 172.826 24.43 172.826 26.95C172.826 29.4233 172.849 31.3367 172.896 32.69C172.99 35.8633 173.79 38.22 175.297 39.76C176.803 41.3 178.85 42.07 181.438 42.07Z" fill="#3C3A36"/>
<path d="M222.518 52.15C218.376 52.15 215.035 50.7733 212.494 48.02C209.952 45.22 208.682 41.3233 208.682 36.33V16.8C208.682 16.2867 208.846 15.8667 209.176 15.54C209.505 15.2133 209.929 15.05 210.446 15.05H219.271C219.788 15.05 220.212 15.2133 220.541 15.54C220.918 15.8667 221.106 16.2867 221.106 16.8V35.91C221.106 40.4833 223.153 42.77 227.248 42.77C229.224 42.77 230.778 42.1633 231.907 40.95C233.037 39.7367 233.601 38.0567 233.601 35.91V16.8C233.601 16.2867 233.766 15.8667 234.095 15.54C234.472 15.2133 234.895 15.05 235.366 15.05H244.19C244.708 15.05 245.132 15.2133 245.461 15.54C245.791 15.8667 245.955 16.2867 245.955 16.8V49.7C245.955 50.1667 245.791 50.5867 245.461 50.96C245.132 51.2867 244.708 51.45 244.19 51.45H236.001C235.531 51.45 235.107 51.2867 234.731 50.96C234.401 50.5867 234.237 50.1667 234.237 49.7V47.04C231.789 50.4467 227.883 52.15 222.518 52.15Z" fill="#3C3A36"/>
<path d="M254.188 9.8C253.671 9.8 253.247 9.63666 252.918 9.31C252.588 8.98333 252.423 8.56333 252.423 8.05V1.75C252.423 1.23667 252.588 0.816666 252.918 0.489998C253.247 0.163333 253.671 0 254.188 0H262.66C263.177 0 263.601 0.163333 263.93 0.489998C264.26 0.816666 264.424 1.23667 264.424 1.75V8.05C264.424 8.56333 264.26 8.98333 263.93 9.31C263.601 9.63666 263.177 9.8 262.66 9.8H254.188ZM254.259 51.45C253.741 51.45 253.318 51.2867 252.988 50.96C252.659 50.6333 252.494 50.2133 252.494 49.7V16.8C252.494 16.2867 252.659 15.8667 252.988 15.54C253.318 15.2133 253.741 15.05 254.259 15.05H262.589C263.107 15.05 263.53 15.2133 263.86 15.54C264.189 15.8667 264.354 16.2867 264.354 16.8V49.7C264.354 50.1667 264.189 50.5867 263.86 50.96C263.53 51.2867 263.107 51.45 262.589 51.45H254.259Z" fill="#3C3A36"/>
<path d="M271.211 51.45C270.74 51.45 270.317 51.2867 269.94 50.96C269.611 50.5867 269.446 50.1667 269.446 49.7V44.24C269.446 43.4 269.823 42.6067 270.576 41.86L287.095 24.08H271.846C271.329 24.08 270.881 23.9167 270.505 23.59C270.176 23.2633 270.011 22.8433 270.011 22.33V16.8C270.011 16.2867 270.176 15.8667 270.505 15.54C270.881 15.2133 271.329 15.05 271.846 15.05H300.225C300.743 15.05 301.166 15.2133 301.496 15.54C301.825 15.8667 301.99 16.2867 301.99 16.8V22.75C301.99 23.4033 301.661 24.1033 301.002 24.85L284.906 42.42H301.637C302.155 42.42 302.578 42.5833 302.908 42.91C303.284 43.2367 303.472 43.6567 303.472 44.17V49.7C303.472 50.2133 303.284 50.6333 302.908 50.96C302.578 51.2867 302.155 51.45 301.637 51.45H271.211Z" fill="#3C3A36"/>
<path d="M308.466 51.45C307.995 51.45 307.572 51.2867 307.195 50.96C306.866 50.5867 306.701 50.1667 306.701 49.7V44.24C306.701 43.4 307.078 42.6067 307.831 41.86L324.35 24.08H309.101C308.584 24.08 308.137 23.9167 307.76 23.59C307.431 23.2633 307.266 22.8433 307.266 22.33V16.8C307.266 16.2867 307.431 15.8667 307.76 15.54C308.137 15.2133 308.584 15.05 309.101 15.05H337.48C337.998 15.05 338.421 15.2133 338.751 15.54C339.08 15.8667 339.245 16.2867 339.245 16.8V22.75C339.245 23.4033 338.916 24.1033 338.257 24.85L322.161 42.42H338.892C339.41 42.42 339.833 42.5833 340.163 42.91C340.539 43.2367 340.727 43.6567 340.727 44.17V49.7C340.727 50.2133 340.539 50.6333 340.163 50.96C339.833 51.2867 339.41 51.45 338.892 51.45H308.466Z" fill="#3C3A36"/>
<path d="M362.036 52.15C356.389 52.15 351.941 50.6333 348.694 47.6C345.447 44.5667 343.753 40.1567 343.611 34.37V31.92C343.8 26.4133 345.517 22.12 348.765 19.04C352.059 15.9133 356.459 14.35 361.966 14.35C365.966 14.35 369.331 15.1667 372.061 16.8C374.838 18.3867 376.908 20.58 378.273 23.38C379.685 26.18 380.391 29.4 380.391 33.04V34.72C380.391 35.1867 380.226 35.6067 379.897 35.98C379.567 36.3067 379.144 36.47 378.626 36.47H356.036V36.96C356.13 39.1533 356.671 40.9267 357.66 42.28C358.648 43.6333 360.083 44.31 361.966 44.31C363.142 44.31 364.107 44.0767 364.86 43.61C365.613 43.0967 366.296 42.49 366.907 41.79C367.331 41.2767 367.66 40.9733 367.896 40.88C368.178 40.74 368.602 40.67 369.166 40.67H377.92C378.344 40.67 378.697 40.81 378.979 41.09C379.309 41.3233 379.473 41.65 379.473 42.07C379.473 43.2833 378.767 44.6833 377.355 46.27C375.991 47.8567 373.99 49.2333 371.355 50.4C368.719 51.5667 365.613 52.15 362.036 52.15ZM367.966 29.54V29.4C367.966 27.1133 367.425 25.3167 366.343 24.01C365.307 22.6567 363.848 21.98 361.966 21.98C360.13 21.98 358.671 22.6567 357.589 24.01C356.554 25.3167 356.036 27.1133 356.036 29.4V29.54H367.966Z" fill="#3C3A36"/>
<path d="M400.351 52.15C396.539 52.15 393.339 51.6133 390.751 50.54C388.209 49.4667 386.327 48.1833 385.103 46.69C383.879 45.1967 383.268 43.8667 383.268 42.7C383.268 42.2333 383.432 41.86 383.762 41.58C384.138 41.2533 384.538 41.09 384.962 41.09H393.01C393.292 41.09 393.551 41.2067 393.786 41.44C394.351 41.8133 394.775 42.1167 395.057 42.35C396.092 43.0967 396.986 43.6567 397.739 44.03C398.54 44.3567 399.504 44.52 400.634 44.52C401.999 44.52 403.105 44.2633 403.952 43.75C404.846 43.19 405.293 42.42 405.293 41.44C405.293 40.6467 405.058 40.0167 404.587 39.55C404.164 39.0833 403.316 38.64 402.046 38.22C400.775 37.7533 398.845 37.2633 396.257 36.75C392.351 35.9567 389.339 34.6733 387.221 32.9C385.15 31.08 384.115 28.6533 384.115 25.62C384.115 23.7067 384.727 21.8867 385.95 20.16C387.174 18.4333 388.986 17.0333 391.386 15.96C393.833 14.8867 396.728 14.35 400.069 14.35C403.411 14.35 406.328 14.8633 408.823 15.89C411.317 16.9167 413.2 18.1767 414.47 19.67C415.788 21.1167 416.447 22.4467 416.447 23.66C416.447 24.08 416.282 24.4533 415.953 24.78C415.67 25.1067 415.317 25.27 414.894 25.27H407.552C407.176 25.27 406.823 25.1533 406.493 24.92C405.881 24.5933 405.34 24.2433 404.87 23.87C404.069 23.2633 403.316 22.7967 402.61 22.47C401.905 22.1433 401.034 21.98 399.999 21.98C398.775 21.98 397.787 22.26 397.034 22.82C396.328 23.38 395.975 24.1033 395.975 24.99C395.975 25.69 396.163 26.2733 396.539 26.74C396.963 27.2067 397.81 27.6733 399.081 28.14C400.398 28.56 402.328 29.0033 404.87 29.47C409.435 30.2633 412.753 31.6633 414.823 33.67C416.941 35.6767 418 38.0333 418 40.74C418 44.1933 416.447 46.97 413.341 49.07C410.235 51.1233 405.905 52.15 400.351 52.15Z" fill="#3C3A36"/>
</svg>
